<?xml version="1.0" standalone="no"?>
<!DOCTYPE svg PUBLIC "-//W3C//DTD SVG 20010904//EN"
 "http://www.w3.org/TR/2001/REC-SVG-20010904/DTD/svg10.dtd">
<svg version="1.0" xmlns="http://www.w3.org/2000/svg"
 width="700.000000pt" height="700.000000pt" viewBox="0 0 700.000000 700.000000"
 preserveAspectRatio="xMidYMid meet">
<metadata>
Created by potrace 1.11, written by Peter Selinger 2001-2013
</metadata>
<g transform="translate(0.000000,700.000000) scale(0.100000,-0.100000)"
fill="#000000" stroke="none">
<path d="M1964 5488 c1 -591 3 -673 16 -674 8 -1 29 -2 46 -3 l31 -1 -2 -90
-2 -90 1287 0 1287 0 -1 90 -1 90 63 0 62 0 -2 -702 -3 -703 -2125 0 -2125 0
-2 -992 c-1 -546 1 -994 5 -994 4 -1 1430 -3 3170 -4 l3162 -1 0 2373 0 2373
-2433 0 -2434 0 1 -672z m2786 -1 l0 -612 -1360 -1 c-926 0 -1360 4 -1361 11
-1 5 -2 281 -3 613 l-1 602 1362 0 1363 0 0 -613z m2018 -1700 l-3 -2312 -975
0 -975 0 -3 2312 -2 2312 980 1 980 0 -2 -2313z m-4777 -457 c4 -78 3 -1811
-2 -1830 l-5 -25 -705 -1 c-387 0 -709 1 -714 3 -12 4 -15 1840 -3 1858 4 7
254 10 717 10 625 0 711 -2 712 -15z m2747 11 c10 -1 12 -191 10 -933 l-3
-933 -1338 0 c-737 0 -1342 2 -1346 5 -4 3 -7 421 -7 930 l0 925 41 5 c30 4
2580 5 2643 1z"/>
<path d="M4870 3805 c0 -722 1 -765 18 -766 57 -3 1799 -4 1810 -1 9 3 12 166
12 768 l0 764 -920 0 -920 0 0 -765z m1566 533 l0 -77 -645 2 -646 2 -2 72
c-1 59 1 72 15 75 8 2 299 3 646 3 l631 -1 1 -76z"/>
<path d="M2783 3742 l-483 -2 0 -60 0 -60 -1057 -2 -1057 -3 0 -53 c-1 -30 3
-57 9 -60 10 -6 4449 -10 4478 -4 15 4 17 14 16 63 l-2 59 -198 0 -199 0 0 60
0 60 -47 1 c-264 2 -1075 3 -1460 1z"/>
<path d="M635 1322 c-20 -3 -21 -9 -20 -231 l0 -228 3015 1 3015 1 2 228 c1
169 -1 227 -10 228 -35 2 -5985 4 -6002 1z"/>
</g>
</svg>
