<svg viewBox="0 0 60 61" fill="none" xmlns="http://www.w3.org/2000/svg">
  <path d="M58.626 1.421a4.804 4.804 0 00-6.823 0L49.53 3.696a4.764 4.764 0 00-4.486 1.263L31.461 18.542H8.529C3.854 18.542 0 22.395 0 27.07V51.52c0 4.675 3.854 8.528 8.529 8.528h24.448c4.675 0 8.529-3.853 8.529-8.528V28.587l11.877-11.814.505.821a3.259 3.259 0 01-.505 3.98L45.8 29.155a1.487 1.487 0 000 2.085 1.48 1.48 0 001.075.442 1.48 1.48 0 001.074-.442l7.58-7.581c2.022-2.022 2.401-5.117.948-7.581l-.948-1.58a4.664 4.664 0 00.948-2.842c0-.38-.063-.758-.126-1.137l2.274-2.275c1.832-1.832 1.832-4.927 0-6.823zM47.065 7.107c.38-.379.821-.505 1.327-.505.505 0 .947.19 1.326.505l3.222 3.285c.316.316.506.822.506 1.327s-.19.947-.506 1.327l-8.907 8.78-5.812-5.811 8.844-8.908zM25.144 40.78c-.38.38-.822.695-1.264 1.01l-5.623-5.622c.316-.442.632-.884 1.011-1.263l16.805-16.805 5.875 5.876-16.805 16.804zm-10.045 4.17c0-2.211.568-4.296 1.516-6.255l4.738 4.675c-1.958 1.011-4.043 1.58-6.254 1.58zm23.437 6.57c0 3.032-2.463 5.56-5.559 5.56H8.53c-3.033 0-5.56-2.465-5.56-5.56V27.07c0-3.032 2.464-5.56 5.56-5.56h19.9L17.184 32.82c-3.475 3.41-5.244 8.149-5.055 13.013l-2.084 2.085a1.487 1.487 0 000 2.085 1.48 1.48 0 001.074.442c.379 0 .758-.127 1.074-.442l2.084-2.085c.253 0 .506.063.759.063 4.548 0 8.97-1.832 12.255-5.054L38.6 31.62v19.9h-.064zm17.942-45.36l-1.769 1.77-2.59-2.59 1.769-1.77c.695-.695 1.895-.695 2.59 0a1.76 1.76 0 010 2.59z" fill="#fff"/>
</svg>
