<svg width="97" height="50" fill="none" xmlns="http://www.w3.org/2000/svg"><path d="M96.386.588H.591v48.801h95.795V.588z" fill="#fff"/><path d="M97 50H0V0h97v50zM1.205 48.801h94.59V1.2H1.205V48.8z" fill="#070707"/><path d="M48.547 45.44H1.535v3.95h47.012v-3.95z" fill="#fff"/><path d="M49.137 50H.921v-5.148h48.216V50zM2.126 48.801h45.807v-2.75H2.126v2.75z" fill="#070707"/><path d="M95.559 45.44H48.547v3.95h47.012v-3.95z" fill="#fff"/><path d="M96.173 50h-48.24v-5.148h48.216V50h.024zm-47.036-1.199h45.83v-2.75h-45.83v2.75z" fill="#070707"/><path d="M96.386.588h-4.252v48.801h4.252V.588z" fill="#fff"/><path d="M97 50h-5.457V0H97v50zm-4.252-1.199h3.047V1.2h-3.047V48.8z" fill="#070707"/><path d="M4.843.588H.591v48.801h4.252V.588z" fill="#fff"/><path d="M5.457 50H0V0h5.457v50zm-4.252-1.199h3.047V1.2H1.205V48.8zM71.557 32.087H25.443c-1.157 0-2.031-.729-2.22-1.857a2.96 2.96 0 012.031-3.244L48.5 19.323l23.246 7.663c1.583.517 2.22 2.069 2.032 3.244-.165 1.128-1.04 1.857-2.22 1.857zM48.5 20.592l-22.868 7.546c-.921.306-1.346 1.222-1.228 1.928.047.305.26.846 1.04.846H71.58c.78 0 .992-.54 1.04-.846.118-.706-.308-1.622-1.23-1.928l-22.89-7.546z" fill="#070707"/><path d="M49.138 20.075h-1.205v-3.926c-1.772-.329-3.047-1.786-3.047-3.55 0-1.998 1.63-3.62 3.638-3.62 2.079 0 3.638 1.552 3.638 3.62h-1.205c0-1.41-1.016-2.42-2.433-2.42a2.424 2.424 0 00-2.433 2.42c0 1.317 1.063 2.351 2.456 2.422l.591.023v5.03z" fill="#070707"/></svg>