<svg width="61" height="62" fill="none" xmlns="http://www.w3.org/2000/svg"><g clip-path="url(#clip0)"><path d="M14.197.875H7.788v4.543h6.409V.875z" fill="#fff"/><path d="M14.835 6.082H7.124V.237h7.711v5.845zM8.426 4.78h5.107V1.54H8.426V4.78z" fill="#070707"/><path d="M23.951.875h-6.409v4.543h6.409V.875z" fill="#fff"/><path d="M24.614 6.082h-7.71V.237h7.71v5.845zM18.206 4.78h5.107V1.54h-5.107V4.78z" fill="#070707"/><path d="M33.705.875h-6.41v4.543h6.41V.875z" fill="#fff"/><path d="M34.368 6.082h-7.71V.237h7.71v5.845zM27.96 4.78h5.107V1.54H27.96V4.78z" fill="#070707"/><path d="M43.459.875h-6.41v4.543h6.41V.875z" fill="#fff"/><path d="M44.122 6.082h-7.71V.237h7.71v5.845zM37.713 4.78h5.107V1.54h-5.107V4.78z" fill="#070707"/><path d="M53.213.875h-6.41v4.543h6.41V.875z" fill="#fff"/><path d="M53.876 6.082h-7.711V.237h7.711v5.845zM47.467 4.78h5.107V1.54h-5.107V4.78z" fill="#070707"/><path fill-rule="evenodd" clip-rule="evenodd" d="M2.145 4.167H58.88c.817 0 1.48.715 1.48 1.608v53.979c0 .893-.663 1.608-1.48 1.608H2.145c-.817 0-1.481-.715-1.481-1.608V5.75c-.026-.868.664-1.583 1.48-1.583z" fill="#fff"/><path d="M58.855 62H2.145C.97 62 0 60.979 0 59.754V5.75C0 4.5.97 3.504 2.145 3.504H58.88c1.174 0 2.145.995 2.145 2.246v53.978C61 60.978 60.056 62 58.855 62zM2.145 4.806c-.46 0-.843.433-.843.944v53.978c0 .51.383.944.843.944H58.88c.46 0 .842-.433.842-.944V5.75c0-.51-.383-.944-.842-.944H2.145z" fill="#070707"/><path fill-rule="evenodd" clip-rule="evenodd" d="M7.89 9.145h45.246c.893 0 1.634.689 1.634 1.556v37.926c0 .867-.74 1.556-1.634 1.556H7.89c-.894 0-1.634-.689-1.634-1.556V10.7c0-.842.715-1.556 1.634-1.556z" fill="#fff"/><path d="M53.135 50.821H7.89c-1.251 0-2.273-.995-2.273-2.195V10.701c0-1.2 1.022-2.195 2.273-2.195h45.245c1.252 0 2.273.996 2.273 2.195v37.925c0 1.2-1.022 2.195-2.273 2.195zM7.89 9.808c-.537 0-.996.408-.996.893v37.925c0 .485.434.894.97.894H53.11c.536 0 .97-.409.97-.894V10.701c0-.485-.46-.893-.97-.893H7.89z" fill="#070707"/><path d="M20.402 12.207H19.1v15.185h1.302V12.207z" fill="#070707"/><path d="M27.347 19.149H12.154v1.302h15.193v-1.302z" fill="#070707"/><path fill-rule="evenodd" clip-rule="evenodd" d="M19.764 24.15a4.38 4.38 0 004.366-4.363 4.38 4.38 0 00-4.366-4.365 4.38 4.38 0 00-4.366 4.365 4.363 4.363 0 004.366 4.364z" fill="#fff"/><path d="M19.763 24.815a5.012 5.012 0 01-5.004-5.003 5.012 5.012 0 015.004-5.002 5.012 5.012 0 015.005 5.002 5.012 5.012 0 01-5.005 5.003zm0-8.729a3.704 3.704 0 00-3.702 3.7c0 2.042 1.66 3.701 3.702 3.701a3.704 3.704 0 003.703-3.7c0-2.042-1.66-3.7-3.703-3.7zM41.9 12.207H40.6v15.185H41.9V12.207z" fill="#070707"/><path d="M48.846 19.149H33.653v1.302h15.193v-1.302z" fill="#070707"/><path fill-rule="evenodd" clip-rule="evenodd" d="M41.237 24.15a4.38 4.38 0 004.367-4.363 4.38 4.38 0 00-4.367-4.365 4.38 4.38 0 00-4.366 4.365 4.363 4.363 0 004.366 4.364z" fill="#fff"/><path d="M41.237 24.815a5.012 5.012 0 01-5.005-5.003 5.012 5.012 0 015.005-5.002 5.011 5.011 0 015.005 5.002c.025 2.757-2.222 5.003-5.005 5.003zm0-8.729a3.704 3.704 0 00-3.702 3.7c0 2.042 1.66 3.701 3.702 3.701a3.704 3.704 0 003.702-3.7c.026-2.042-1.66-3.7-3.702-3.7zM20.402 31.017H19.1v15.185h1.302V31.017z" fill="#070707"/><path d="M27.347 37.959H12.154v1.301h15.193V37.96z" fill="#070707"/><path fill-rule="evenodd" clip-rule="evenodd" d="M19.764 42.986a4.38 4.38 0 004.366-4.364 4.38 4.38 0 00-4.366-4.364 4.38 4.38 0 00-4.366 4.364 4.38 4.38 0 004.366 4.364z" fill="#fff"/><path d="M19.763 43.624a5.012 5.012 0 01-5.004-5.002 5.012 5.012 0 015.004-5.002 5.012 5.012 0 015.005 5.002 5.012 5.012 0 01-5.005 5.002zm0-8.728a3.704 3.704 0 00-3.702 3.7c0 2.042 1.66 3.701 3.702 3.701a3.704 3.704 0 003.703-3.7c0-2.017-1.66-3.701-3.703-3.701zM41.9 31.017H40.6v15.185H41.9V31.017z" fill="#070707"/><path d="M48.846 37.959H33.653v1.301h15.193V37.96z" fill="#070707"/><path fill-rule="evenodd" clip-rule="evenodd" d="M41.237 42.986a4.38 4.38 0 004.367-4.364 4.38 4.38 0 00-4.367-4.364 4.38 4.38 0 00-4.366 4.364 4.38 4.38 0 004.366 4.364z" fill="#fff"/><path d="M41.237 43.624a5.012 5.012 0 01-5.005-5.002 5.012 5.012 0 015.005-5.002 5.012 5.012 0 015.005 5.002c.025 2.756-2.222 5.002-5.005 5.002zm0-8.728a3.704 3.704 0 00-3.702 3.7c0 2.042 1.66 3.701 3.702 3.701a3.704 3.704 0 003.702-3.7c.026-2.017-1.66-3.701-3.702-3.701z" fill="#070707"/></g><defs><clipPath id="clip0"><path fill="#fff" transform="translate(0 .237)" d="M0 0h61v61.763H0z"/></clipPath></defs></svg>