<svg width="113" height="48" fill="none" xmlns="http://www.w3.org/2000/svg"><path fill-rule="evenodd" clip-rule="evenodd" d="M7.068.368h98.849c3.675 0 6.7 3.003 6.7 6.683V40.95c0 3.68-3.011 6.682-6.7 6.682H7.068C3.38 47.632.37 44.63.37 40.95V7.05C.37 3.387 3.394.369 7.07.369z" fill="#fff"/><path d="M105.917 48H7.068C3.173 48 0 44.835 0 40.95V7.05C0 3.166 3.172 0 7.068 0h98.849c3.896 0 7.068 3.165 7.068 7.05v33.9c.015 3.885-3.158 7.05-7.068 7.05zM7.068.75C3.586.75.753 3.578.753 7.05v33.9c0 3.473 2.833 6.3 6.315 6.3h98.849c3.483 0 6.316-2.827 6.316-6.3V7.05c0-3.473-2.833-6.3-6.316-6.3H7.068z" fill="#070707"/><path fill-rule="evenodd" clip-rule="evenodd" d="M16.88 4.49h79.24c4.839 0 8.808 3.945 8.808 8.787v21.461c0 4.828-3.969 8.788-8.809 8.788H16.88c-4.84 0-8.809-3.96-8.809-8.788V13.262c0-4.827 3.97-8.772 8.81-8.772z" fill="#fff"/><path d="M96.119 43.894H16.88c-5.061 0-9.178-4.107-9.178-9.156V13.262c0-5.048 4.117-9.155 9.178-9.155H96.12c5.061 0 9.178 4.107 9.178 9.155v21.476c0 5.049-4.117 9.156-9.178 9.156zM16.88 4.858c-4.648 0-8.425 3.768-8.425 8.404v21.476c0 4.637 3.777 8.405 8.425 8.405H96.12c4.648 0 8.426-3.768 8.426-8.405V13.262c0-4.636-3.778-8.404-8.426-8.404H16.88z" fill="#070707"/><path d="M96.12 39.625H21.97c-2.7 0-4.899-2.193-4.899-4.887V13.262c0-2.693 2.199-4.887 4.9-4.887h74.147c2.7 0 4.899 2.194 4.899 4.887v21.476c-.015 2.694-2.213 4.887-4.899 4.887zM21.97 9.14a4.145 4.145 0 00-4.146 4.136v21.461a4.145 4.145 0 004.146 4.136H96.12a4.145 4.145 0 004.147-4.136V13.262a4.145 4.145 0 00-4.147-4.136H21.971v.015z" fill="#070707"/><path d="M89.848 26.392a2.387 2.387 0 01-2.39-2.385 2.396 2.396 0 012.39-2.384 2.387 2.387 0 012.39 2.384c.016 1.31-1.061 2.385-2.39 2.385zm0-4.034c-.9 0-1.637.736-1.637 1.634 0 .898.737 1.634 1.637 1.634s1.638-.736 1.638-1.634c.015-.898-.723-1.634-1.638-1.634z" fill="#070707"/><path d="M90.232 22.3h-.752v3.4h.752v-3.4z" fill="#070707"/><path d="M91.56 23.625h-3.409v.75h3.409v-.75z" fill="#070707"/><path fill-rule="evenodd" clip-rule="evenodd" d="M104.265 27.231v-6.447c0-.706.575-1.295 1.298-1.295h1.668c.708 0 1.298.574 1.298 1.295v6.447c0 .707-.575 1.295-1.298 1.295h-1.668c-.723-.014-1.298-.588-1.298-1.295z" fill="#fff"/><path d="M107.216 28.894h-1.668c-.915 0-1.667-.75-1.667-1.663v-6.447c0-.913.752-1.663 1.667-1.663h1.668c.915 0 1.667.75 1.667 1.663v6.447c0 .913-.752 1.663-1.667 1.663zm-1.668-9.023a.919.919 0 00-.915.913v6.447c0 .5.414.913.915.913h1.668a.919.919 0 00.915-.913v-6.447c0-.5-.414-.913-.915-.913h-1.668z" fill="#070707"/><path fill-rule="evenodd" clip-rule="evenodd" d="M96.887 23.993c0-.81.664-1.472 1.475-1.472h10.521c.812 0 1.476.662 1.476 1.472 0 .81-.664 1.472-1.476 1.472h-10.52a1.46 1.46 0 01-1.476-1.472z" fill="#fff"/><path d="M108.883 25.847h-10.52a1.859 1.859 0 01-1.86-1.854c0-1.016.826-1.84 1.86-1.84h10.52c1.018 0 1.859.824 1.859 1.84a1.868 1.868 0 01-1.859 1.854zm-10.52-2.944a1.1 1.1 0 00-1.108 1.09c0 .603.502 1.104 1.107 1.104h10.521c.605 0 1.107-.486 1.107-1.104 0-.604-.487-1.09-1.107-1.09h-10.52z" fill="#070707"/></svg>