<svg viewBox="0 0 60 55" fill="none" xmlns="http://www.w3.org/2000/svg">
  <path d="M60 51.84l-5.807-6.785-.164 2.635-6.324-3.162v-22.27c0-.01-.003-.02-.004-.03a.855.855 0 00-.014-.143l-.013-.064a.839.839 0 00-.04-.128c-.01-.024-.018-.048-.029-.071-.004-.01-.006-.02-.011-.03-.004-.007-.01-.013-.013-.02l-.035-.06a1.129 1.129 0 00-.079-.113c-.013-.016-.028-.031-.042-.046a1.034 1.034 0 00-.056-.056c-.015-.014-.03-.029-.047-.043l-.047-.035a.86.86 0 00-.066-.044c-.02-.012-.039-.024-.06-.035-.007-.004-.013-.01-.02-.013L31.04 13.283V7.195l2.43 1.032L30 0l-3.471 8.228 2.429-1.032v6.088l-16.087 8.043c-.007.004-.013.009-.02.012a1.19 1.19 0 00-.127.08l-.046.034c-.017.014-.033.03-.049.045a1.044 1.044 0 00-.054.055c-.015.015-.03.03-.043.046-.013.016-.023.032-.035.048a.86.86 0 00-.08.125l-.012.021c-.005.01-.007.02-.011.029a.815.815 0 00-.03.072l-.023.067a1.005 1.005 0 00-.038.198l-.005.07c0 .011-.003.02-.003.031v22.269L5.97 47.69l-.163-2.635L0 51.839l8.912-.575-2.01-1.711 6.435-3.217 16.198 8.099.042.017.036.016c.055.022.11.04.167.052l.03.005a1.015 1.015 0 00.41-.005c.058-.013.113-.03.168-.052l.037-.016c.014-.006.028-.01.042-.017l16.197-8.099 6.435 3.217-2.01 1.711 8.911.575zM31.041 31.234l14.581-7.29v19.542l-14.58-7.291v-4.961zm13.294-8.976L31.04 28.905V15.612l13.294 6.647zm-15.376 6.646L15.665 22.26l13.294-6.647v13.293zm-14.581-4.961l14.58 7.29v4.961l-14.58 7.291V23.944zm14.58 14.58v13.294l-13.292-6.647 13.293-6.646zm2.083 13.293V38.524l13.293 6.647-13.293 6.646z" fill="#fff"/>
</svg>
