<svg width="69" height="69" fill="none" xmlns="http://www.w3.org/2000/svg"><g clip-path="url(#clip0)"><path fill-rule="evenodd" clip-rule="evenodd" d="M50.008 18.996c8.564 8.569 8.564 22.472 0 31.04-8.565 8.57-22.46 8.57-31.023 0-8.564-8.568-8.564-22.471 0-31.04 8.57-8.569 22.465-8.569 31.023 0z" fill="#fff"/><path d="M34.503 56.721c-5.928 0-11.506-2.306-15.693-6.502-8.655-8.66-8.655-22.745 0-31.405 4.194-4.19 9.765-6.503 15.693-6.503 5.928 0 11.499 2.313 15.693 6.503 4.188 4.197 6.493 9.77 6.493 15.709 0 5.931-2.305 11.505-6.5 15.702-4.187 4.19-9.758 6.496-15.686 6.496zm0-43.897c-5.792 0-11.24 2.255-15.33 6.354-8.453 8.458-8.453 22.225 0 30.677a21.525 21.525 0 0015.33 6.353 21.525 21.525 0 0015.33-6.353 21.55 21.55 0 006.35-15.339c0-5.795-2.253-11.245-6.35-15.338-4.097-4.093-9.538-6.354-15.33-6.354z" fill="#070707"/><path fill-rule="evenodd" clip-rule="evenodd" d="M47.06 13.013l8.947 8.959a1.579 1.579 0 002.234 0l9.265-9.277L56.326 1.5l-9.266 9.277a1.58 1.58 0 000 2.235z" fill="#fff"/><path d="M57.131 22.686a1.82 1.82 0 01-1.298-.533l-8.954-8.958a1.828 1.828 0 01-.54-1.3c0-.493.19-.955.54-1.299l9.447-9.452.182.181 11.369 11.376-.182.182-9.265 9.27c-.351.345-.812.533-1.299.533zm-.805-20.821l-9.084 9.095c-.253.247-.39.585-.39.935 0 .351.137.689.39.936l8.948 8.959c.493.5 1.376.5 1.876 0l9.09-9.096-10.83-10.83z" fill="#070707"/><path fill-rule="evenodd" clip-rule="evenodd" d="M58.235 1.046l9.732 9.745c.617.617 1.234 1.773.13 2.105l-1.13.344L55.78 2.046l.344-1.13c.377-1.221 1.494-.487 2.11.13z" fill="#fff"/><path d="M66.896 13.532l-.11-.11L55.488 2.118l.39-1.273c.227-.735.701-.845.96-.845.644 0 1.319.604 1.579.864l9.732 9.745c.455.455.935 1.208.786 1.825-.058.24-.24.553-.76.709l-1.279.39zM56.073 1.975l10.973 10.98.98-.3c.35-.104.396-.285.41-.344.09-.364-.26-.948-.65-1.338l-9.733-9.745c-.344-.344-.844-.715-1.214-.715-.091 0-.325 0-.468.481l-.298.981z" fill="#070707"/><path fill-rule="evenodd" clip-rule="evenodd" d="M13.005 47.087l8.954 8.952a1.589 1.589 0 010 2.242l-9.272 9.277L1.5 56.358l9.272-9.271a1.579 1.579 0 012.233 0z" fill="#fff"/><path d="M12.687 67.915l-.182-.182L1.143 56.358l.181-.182 9.266-9.27c.694-.69 1.909-.69 2.597 0l8.954 8.951a1.844 1.844 0 010 2.599l-9.454 9.459zM1.863 56.358l10.824 10.83 9.09-9.096a1.338 1.338 0 000-1.877l-8.954-8.946c-.5-.5-1.376-.5-1.876 0l-9.084 9.089z" fill="#070707"/><path fill-rule="evenodd" clip-rule="evenodd" d="M1.045 58.268l9.74 9.745c.616.617 1.772 1.227 2.11.13l.344-1.13L2.045 55.811l-1.13.344c-1.22.37-.487 1.495.13 2.112z" fill="#fff"/><path d="M12.18 69c-.564 0-1.181-.422-1.577-.812l-9.74-9.745c-.311-.312-1.013-1.11-.837-1.806.058-.24.253-.559.818-.728l1.279-.39.11.111 11.298 11.304-.39 1.28c-.214.682-.694.786-.96.786zM1.975 56.104l-.98.3c-.273.083-.43.2-.468.363-.072.299.201.818.701 1.319l9.74 9.745c.33.33.83.662 1.213.662.156 0 .351-.045.468-.429l.299-.98-10.973-10.98z" fill="#070707"/><path fill-rule="evenodd" clip-rule="evenodd" d="M55.995 47.087l-8.947 8.952a1.589 1.589 0 000 2.242l9.271 9.277 11.188-11.194-9.279-9.277a1.579 1.579 0 00-2.233 0z" fill="#fff"/><path d="M56.313 67.915l-.182-.182-9.265-9.27a1.828 1.828 0 01-.539-1.3c0-.493.188-.955.54-1.3l8.946-8.958c.695-.688 1.91-.688 2.604 0l9.447 9.453-.182.181-11.369 11.376zm.799-21.036a1.29 1.29 0 00-.935.39l-8.954 8.952c-.253.247-.39.585-.39.942 0 .358.137.689.39.936l9.09 9.095 10.824-10.83-9.09-9.095a1.29 1.29 0 00-.935-.39z" fill="#070707"/><path fill-rule="evenodd" clip-rule="evenodd" d="M67.955 58.268l-9.733 9.744c-.617.618-1.772 1.228-2.11.13l-.338-1.13 11.188-11.194 1.13.345c1.214.364.48 1.487-.137 2.105z" fill="#fff"/><path d="M56.827 69c-.267 0-.747-.104-.962-.786l-.383-1.28.11-.11 11.292-11.298 1.28.39c.564.169.752.493.81.727.176.695-.532 1.495-.837 1.806l-9.733 9.745c-.396.39-1.013.806-1.578.806zm-.767-1.923l.299.98c.117.377.312.423.468.423.383 0 .883-.331 1.214-.663l9.733-9.744c.5-.5.779-1.02.707-1.32-.039-.155-.195-.279-.467-.363l-.98-.299L56.06 67.077z" fill="#070707"/><path fill-rule="evenodd" clip-rule="evenodd" d="M21.945 13.012l-8.953 8.96a1.587 1.587 0 01-2.24 0l-9.266-9.278L12.674 1.5l9.271 9.278c.61.617.61 1.624 0 2.234z" fill="#fff"/><path d="M11.875 22.686a1.82 1.82 0 01-1.298-.533l-9.454-9.459.182-.182L12.667 1.137l.182.182 9.272 9.277a1.844 1.844 0 010 2.598l-8.947 8.96c-.35.343-.812.532-1.299.532zM1.85 12.694l9.09 9.095c.5.5 1.37.5 1.877 0l8.947-8.959a1.338 1.338 0 000-1.877l-9.09-9.095L1.85 12.694z" fill="#070707"/><path fill-rule="evenodd" clip-rule="evenodd" d="M10.772 1.046l-9.74 9.745c-.616.617-1.233 1.773-.13 2.105l1.13.344L13.22 2.046l-.344-1.13c-.37-1.221-1.494-.487-2.104.13z" fill="#fff"/><path d="M2.104 13.532l-1.272-.39c-.52-.155-.702-.474-.76-.708-.156-.617.325-1.364.786-1.825L10.597.864C10.85.604 11.525 0 12.162 0c.26 0 .733.11.96.845l.39 1.273-.11.11L2.104 13.532zM12.162.513c-.305 0-.773.273-1.215.715l-9.739 9.745c-.39.39-.74.974-.65 1.338.014.059.06.24.416.344l.98.3 10.974-10.98-.299-.981c-.143-.48-.376-.48-.467-.48z" fill="#070707"/></g><defs><clipPath id="clip0"><path fill="#fff" d="M0 0h69v69H0z"/></clipPath></defs></svg>