<svg width="90" height="110" fill="none" xmlns="http://www.w3.org/2000/svg"><path d="M85.95 0H2v89.975h83.95V0z" fill="#40758B"/><path d="M29.126 89.992h.065c-.016 0-.033-.017-.033-.017l-.032.017zM79.453 85.1l-.293-.407-.276-.391c-.212-.277-.407-.538-.62-.799a1.143 1.143 0 01-.13-.163c.261-2.087.489-4.206.62-6.342a46.75 46.75 0 00.08-3.374c0-.571-.032-1.142-.065-1.712-.016-.294-.032-.57-.065-.864v-.017c0 .017-.016-.146 0-.081v-.082l-.016-.097-.032-.245c-.033-.163-.05-.31-.082-.456a12.19 12.19 0 00-1.481-3.815c.553-.457 1.123-.88 1.742-1.24a3.268 3.268 0 011.156-.407c.407-.065.846-.114 1.253-.245-.423.082-.846.082-1.27.098a3.232 3.232 0 00-1.27.31c-.65.293-1.286.652-1.872 1.06a18.761 18.761 0 00-1.596-2.103c-.765-.864-1.563-1.647-2.36-2.413l-1.205-1.109-.603-.554-.146-.13-.017-.017-.016-.016s.016.016 0 0l-.032-.033-.082-.065-.293-.277c-1.53-1.484-2.963-3.065-4.233-4.76a31.288 31.288 0 01-1.742-2.593c.227-.195.472-.39.732-.587.391-.293.798-.668 1.075-1.108a12.822 12.822 0 001.368-2.657v-.017c.13-.668.293-1.32.374-2.005-.016-.962-.472-1.826-.423-2.772-.098.946.309 1.843.276 2.772-.114.652-.309 1.304-.472 1.956-.374.897-.879 1.745-1.449 2.511-.277.391-.635.668-1.026.946-.228.163-.488.326-.732.505a25.614 25.614 0 01-1.205-2.413c-.83-1.94-1.368-4.027-1.465-6.179-.114-2.135.211-4.304.911-6.358-.846 1.99-1.367 4.158-1.432 6.375-.066 2.2.309 4.434 1.009 6.537.684 2.054 1.66 3.994 2.8 5.82-.016-.016-.032-.016-.048-.032a2.9 2.9 0 00-1.156-.36c-.407-.032-.798 0-1.205.099-.733.195-1.482.358-2.247.31-.766-.033-1.498-.294-2.198-.62.667.359 1.4.668 2.181.75.782.098 1.564-.033 2.313-.18a3.067 3.067 0 011.09-.016c.359.05.684.196 1.01.375.293.18.586.408.88.62 1.057 1.581 2.246 3.081 3.483 4.5l.277.31.065.08.033.033.049.05.146.146.554.603 1.09 1.19c.717.783 1.401 1.581 2.02 2.397.602.815 1.14 1.662 1.53 2.527.391.864.652 1.777.766 2.69.016.114.032.228.032.342l.016.163v.897c-.016.505-.032 1.027-.065 1.548a41.236 41.236 0 01-.325 3.114 69.537 69.537 0 01-.505 3.13c-1.726-1.45-3.582-2.673-5.454-3.75-.587-.342-1.157-.651-1.743-.978.065-.619.13-1.255.18-1.89.064-.93.097-1.892.016-2.854-.066-.75-.196-1.5-.407-2.217l.032.017c.082-.196.293-.392.521-.555.228-.163.489-.293.75-.424a9.733 9.733 0 011.676-.587 9.453 9.453 0 00-1.775.326c-.293.082-.586.18-.863.327a2.825 2.825 0 00-.423.244c-.032.033-.065.049-.098.082 0-.017-.016-.033-.016-.05-.31-.896-.733-1.744-1.188-2.559-.114-.196-.228-.407-.359-.603a5.313 5.313 0 00-.407-.587c-.276-.375-.586-.734-.895-1.092-.619-.685-1.254-1.337-1.872-2.022-.603-.668-1.19-1.37-1.678-2.135-.472-.767-.83-1.614-.928-2.527.017.913.326 1.826.75 2.64.423.816.976 1.582 1.53 2.3.57.733 1.156 1.418 1.693 2.151l.049.05c-.18.032-.342.064-.505.113a3.205 3.205 0 00-.716.343 1.8 1.8 0 00-.57.538.884.884 0 00-.114.75.792.792 0 01.228-.653c.163-.162.374-.293.586-.374.212-.082.456-.147.684-.18.228-.032.472-.032.668 0l.016-.147c.163.212.31.44.44.653.113.179.227.375.325.57.098.196.195.408.293.603.375.816.716 1.647.928 2.478a9.82 9.82 0 01.342 2.576c0 .864-.081 1.745-.228 2.625-.065.424-.13.832-.212 1.255l-.097-.048c-1.107-.571-2.15-1.125-3.175-1.745-2.035-1.223-3.859-2.641-5.292-4.434-1.433-1.777-2.458-3.913-3.256-6.163l-.147-.424-.065-.212-.065-.212-.277-.88c-.179-.587-.342-1.174-.505-1.76a53.645 53.645 0 01-.846-3.555c-.472-2.38-.75-4.793-.733-7.205.016-2.413.342-4.826.977-7.174l.244-.88.13-.44.147-.44c.18-.587.374-1.174.57-1.761.146-.44.31-.88.456-1.32.342-.44.716-.865 1.107-1.256.44-.44.912-.831 1.416-1.223.245-.195.489-.375.75-.57l.39-.277.05-.033.015-.016h.017l.097-.066.196-.097c.276-.13.553-.228.863-.277.293-.066.635-.115.928-.278.293-.163.52-.39.732-.635.098-.114.196-.245.293-.375.098-.13.18-.277.245-.424.26-.587.374-1.223.488-1.843.114-.619.18-1.255.293-1.874-.13.62-.228 1.239-.358 1.858-.13.62-.277 1.24-.553 1.794-.066.146-.147.26-.245.39-.097.131-.195.245-.293.36-.212.228-.44.44-.7.57-.26.13-.57.18-.88.228-.309.05-.634.13-.944.261-.08.033-.146.065-.227.098l-.114.049h-.017l-.016.016-.033.016-.048.033-.391.26-.782.539a14.985 14.985 0 00-1.888 1.598c.114-.343.244-.669.358-1.011.846-2.331 1.726-4.663 2.523-7.027.407-1.19.733-2.412.928-3.651a.503.503 0 00.017-.163l.602-.066c.017.017.017.033.033.066.31.423.977.456 2.263-.473 1.286-.93 1.824-2.51 1.824-2.51s-1.661.048-2.947.977c-1.01.734-1.336 1.304-1.27 1.712l-.489.049c.147-1.109.163-2.25.033-3.359-.147-1.255-.44-2.461-.766-3.668-.325-1.206-.667-2.396-.977-3.603.245 1.223.538 2.43.798 3.636s.505 2.43.587 3.652a13.769 13.769 0 01-.261 3.652 20.579 20.579 0 01-.847 2.918l-.781-.294c.179-.374.032-1.01-.782-2.005-.993-1.239-2.605-1.695-2.605-1.695s.13 1.663 1.124 2.902c.993 1.239 1.66 1.369 2.067 1.043l.033-.033.847.326c-.05.13-.098.245-.147.375-1.156 2.968-2.459 5.886-3.647 8.87-.065-.164-.163-.31-.244-.457-.44-.669-1.026-1.174-1.612-1.647-.586-.473-1.221-.897-1.726-1.435-.244-.277-.456-.586-.537-.945-.082-.359.016-.75.179-1.076-.196.326-.31.7-.245 1.092.05.391.26.734.489 1.027.488.603 1.09 1.06 1.644 1.565.554.506 1.091 1.027 1.433 1.647.163.293.277.603.342.913a76.766 76.766 0 00-1.596 4.353c-.146.44-.276.896-.39 1.353l-.017-.212c-.7.081-1.416.033-2.1-.163a7.216 7.216 0 01-1.938-.897c-1.204-.799-2.214-1.89-3.012-3.097-.781-1.223-1.367-2.593-1.66-4.027-.277-1.419-.26-2.935.293-4.288.26-.668.7-1.271 1.253-1.744.554-.473 1.189-.832 1.84-1.19.651-.343 1.32-.701 1.921-1.125a6.1 6.1 0 00.863-.717c.26-.261.538-.522.766-.816a6.75 6.75 0 001.14-1.923 7.184 7.184 0 00.472-2.185c.114-1.483-.13-2.967-.407-4.418.26 1.45.472 2.935.342 4.418a7.536 7.536 0 01-.505 2.152 6.881 6.881 0 01-1.14 1.875 8.865 8.865 0 01-.782.782c-.26.245-.553.473-.862.685-.603.424-1.27.75-1.922 1.092-.651.343-1.319.701-1.905 1.19a4.73 4.73 0 00-.781.832c-.228.31-.407.636-.57.994a7.36 7.36 0 00-.521 2.201c-.049.75 0 1.516.146 2.25a12.032 12.032 0 001.645 4.174c.798 1.271 1.823 2.429 3.093 3.293a7.82 7.82 0 002.068.994c.7.212 1.433.294 2.166.228a30.134 30.134 0 00-.912 8.2 17.932 17.932 0 01-2.768-1.32 19.936 19.936 0 01-3.37-2.478c-2.1-1.89-3.843-4.173-5.373-6.602-1.547-2.43-2.882-4.99-4.217-7.549-.277-.538-.57-1.076-.847-1.614.31-.26.586-.587.814-.929.244-.358.423-.766.57-1.174.277-.815.39-1.646.505-2.478.114-.831.211-1.646.472-2.429.13-.391.31-.766.553-1.092a3.69 3.69 0 01.88-.864c-.359.212-.684.489-.945.815-.26.326-.472.701-.619 1.092-.309.783-.455 1.614-.618 2.43-.147.815-.31 1.63-.619 2.38a4.248 4.248 0 01-1.27 1.744c-.977-1.858-1.986-3.7-3.11-5.478 2.654 4.728 4.576 9.798 7.18 14.591-.488.49-1.107.848-1.774 1.109-.75.31-1.563.473-2.394.538-.814.065-1.644 0-2.442-.212a4.565 4.565 0 01-1.123-.473c-.359-.212-.684-.456-1.042-.7-.342-.245-.7-.49-1.075-.686a6.717 6.717 0 00-.602-.26l-.603-.212c-.798-.278-1.612-.522-2.41-.767-1.611-.489-3.223-.978-4.77-1.646 1.53.717 3.142 1.239 4.738 1.777a69.5 69.5 0 012.393.831l.586.228c.196.082.375.164.554.261.358.196.7.44 1.026.701.342.261.667.522 1.042.75a5.55 5.55 0 001.188.538c.83.245 1.71.326 2.557.294a8 8 0 002.54-.506c.667-.244 1.319-.587 1.856-1.076.097.163.179.326.277.506 1.449 2.527 3.11 4.972 5.226 7.075a22.24 22.24 0 003.468 2.82 19.93 19.93 0 003.615 1.86c.081 1.157.212 2.298.374 3.423.05.277.082.538.13.815-1.172-.196-2.311-.538-3.451-.995-1.384-.538-2.736-1.206-4.12-1.858-1.384-.652-2.8-1.304-4.282-1.777-1.481-.473-3.06-.766-4.64-.734-.196 0-.39.017-.586.017-.18.016-.358.016-.554.016-.374 0-.733-.017-1.107-.05a14.799 14.799 0 01-2.198-.39 17.328 17.328 0 01-4.152-1.68c-1.303-.75-2.524-1.662-3.55-2.771-1.025-1.109-1.856-2.413-2.312-3.88.391 1.467 1.173 2.837 2.166 4.01.993 1.174 2.182 2.169 3.484 3a17.833 17.833 0 004.201 1.924 13.54 13.54 0 002.28.505c.39.05.781.098 1.172.114.195.017.39.017.586.017h.554c1.465.032 2.914.375 4.314.88 1.384.505 2.72 1.19 4.07 1.907 1.336.718 2.687 1.451 4.12 2.087 1.368.603 2.817 1.109 4.331 1.37.082.407.163.799.26 1.19.13.62.277 1.239.44 1.842l.228.913.065.244.066.229.13.456a29.805 29.805 0 001.351 3.652c.554 1.19 1.205 2.364 2.003 3.456.31.44.651.864 1.01 1.255-.115.017-.245.05-.359.066a43.642 43.642 0 00-3.273.815c-1.253.359-2.474.75-3.696 1.141-1.563-1.01-3.175-1.858-4.738-2.739-1.644-.945-3.224-1.956-4.575-3.228l-2.133-1.956c-.716-.652-1.465-1.304-2.28-1.875-.813-.57-1.709-1.076-2.653-1.418a11.326 11.326 0 00-2.931-.62l-.733-.049c-.228 0-.488-.016-.732-.016h-1.042l-.017-.62c.017-.016.05-.016.065-.032.456-.261.554-.93-.244-2.299-.798-1.37-2.312-2.07-2.312-2.07s-.13 1.663.684 3.032c.635 1.076 1.156 1.451 1.58 1.435l.016.554h-.18c-.96.016-1.92.065-2.849 0-.928-.065-1.856-.245-2.686-.636-.212-.098-.407-.212-.62-.326l-.308-.195-.294-.196c-.407-.261-.797-.522-1.172-.799a32.756 32.756 0 01-4.315-3.782c-1.318-1.386-2.556-2.87-3.549-4.516.928 1.695 2.117 3.228 3.387 4.663a33.632 33.632 0 004.217 3.977c.374.294.765.587 1.172.864l.31.212.292.196c.212.13.424.26.652.375.895.456 1.888.685 2.865.799.977.098 1.954.098 2.915.114.472 0 .96.016 1.433.049l.716.049c.228.016.472.032.7.065.39.049.782.114 1.156.196l-.179.456c-.374-.245-1.01-.147-2.084.701-1.254.978-1.742 2.576-1.742 2.576s1.66-.098 2.914-1.076c1.205-.946 1.384-1.598 1.091-2.005l.228-.587c.44.114.863.244 1.27.407a9.86 9.86 0 012.361 1.386c.733.57 1.416 1.207 2.1 1.875l2.036 2.022c1.4 1.418 3.044 2.559 4.705 3.586 1.172.717 2.328 1.402 3.452 2.12-.195.065-.375.114-.57.179-2.068.62-4.136 1.157-6.236 1.434-1.042.13-2.1.196-3.159.18-.52-.017-1.058-.033-1.579-.098l-.39-.049-.392-.049c-.26-.032-.52-.081-.797-.13a50.704 50.704 0 01-2.98-.603c-.293-.115-.586-.261-.88-.392-.992-.489-1.937-1.092-2.865-1.728-1.856-1.271-3.614-2.706-5.568-3.847-1.938-1.174-3.908-2.266-5.846-3.424-1.937-1.157-3.842-2.38-5.584-3.798 1.726 1.45 3.598 2.722 5.52 3.912 1.92 1.19 3.858 2.332 5.763 3.538 1.922 1.174 3.631 2.641 5.47 3.962.701.505 1.417.994 2.183 1.434-.57-.098-1.14-.163-1.726-.18a10.783 10.783 0 00-3.387.408c-.537.147-1.074.343-1.595.571-.261.114-.505.228-.766.342l-.732.343c-1.97.864-4.087 1.37-6.236 1.777-2.15.407-4.315.75-6.415 1.385 2.116-.521 4.298-.75 6.463-1.043 2.166-.293 4.348-.685 6.432-1.467.26-.098.52-.196.781-.31.245-.098.489-.196.75-.293.504-.18 1.009-.343 1.53-.457a9.985 9.985 0 013.11-.212c1.042.098 2.067.359 3.11.636 1.042.277 2.116.587 3.207.832.277.065.537.114.814.179l.407.081.424.066a28.37 28.37 0 001.693.195c1.123.082 2.263.065 3.387-.016 2.263-.163 4.46-.62 6.61-1.141 2.15-.522 4.25-1.125 6.334-1.598 1.84-.424 3.68-.75 5.503-.848.749.62 1.53 1.19 2.328 1.728a53.395 53.395 0 003.273 2.006c1.058.62 2.1 1.239 3.126 1.89 2.02 1.305 3.924 2.707 5.536 4.354.375.374.733.766 1.075 1.157a8.784 8.784 0 00-.57-.26 23.975 23.975 0 00-5.83-1.745c-2.002-.326-4.037-.44-6.072-.18-3.94.49-7.718 1.55-11.577 1.843-.488.032-.96.065-1.449.065-.472 0-.944-.033-1.433-.082-.96-.114-1.921-.277-2.898-.39-.977-.115-1.954-.213-2.947-.148a6.294 6.294 0 00-1.449.261 4.293 4.293 0 00-1.303.669 3.992 3.992 0 011.32-.587 6.13 6.13 0 011.432-.163c.96 0 1.938.147 2.882.31.96.179 1.905.39 2.882.57.488.082.977.147 1.498.18.505.016.993.016 1.481.016 1.987-.033 3.94-.277 5.878-.522 1.938-.26 3.86-.505 5.797-.636 1.856-.114 3.76.082 5.6.506.326.065.636.163.945.244a6.662 6.662 0 00-1.498.228 5.852 5.852 0 00-1.758.848 7.167 7.167 0 00-1.4 1.32c-.391.506-.7 1.093-.88 1.712a7.37 7.37 0 00-.277 1.451h.554c.065-.424.163-.847.31-1.255a4.517 4.517 0 01.862-1.45 6.347 6.347 0 011.286-1.093 5.21 5.21 0 011.531-.62 5.06 5.06 0 011.645-.097c1.107.097 2.198.505 3.256 1.01 1.058.506 2.084 1.109 3.142 1.712.538.293 1.075.587 1.629.864l.293.294c.195.195.374.407.537.62h5.096a38.584 38.584 0 00-1.726-3.229c-.342-.587-.7-1.157-1.09-1.695zM85.2 27.78c0 .7.066 1.402.164 2.087-.505-1.076-1.01-2.136-1.482-3.212-.749-1.68-1.449-3.375-1.97-5.136-.521-1.76-.847-3.586-.782-5.428-.146 1.842.114 3.7.57 5.477.456 1.794 1.108 3.538 1.791 5.234.7 1.711 1.433 3.39 2.133 5.086.18.457.375.913.538 1.37V31.22c-.082-.294-.163-.57-.228-.864a13.007 13.007 0 01-.326-2.625c-.033-.88.032-1.76.212-2.625.081-.391.195-.782.342-1.141v-.717a7.035 7.035 0 00-.684 1.793 13.03 13.03 0 00-.277 2.739z" fill="#fff"/><path d="M83.573 55.136c-.065.18-.114.342-.18.522-1.058-1.06-2.05-2.136-2.914-3.293l-.374-.506c-.114-.147-.228-.31-.342-.456-.228-.31-.44-.636-.651-.962a24.474 24.474 0 01-1.173-1.99c-1.433-2.722-2.344-5.738-2.442-8.819-.016-.766 0-1.549.081-2.315.033-.391.098-.766.163-1.141l.212-1.19c.293-1.565.732-3.114 1.14-4.712.406-1.581.797-3.211.928-4.907.065-.848.048-1.695-.033-2.527a12.516 12.516 0 00-.537-2.462l-.147-.39c.326-.278.619-.604.863-.963.293-.44.505-.913.668-1.402.342-.962.504-1.956.7-2.934.195-.978.374-1.957.781-2.853.212-.44.472-.864.847-1.207.358-.342.814-.57 1.286-.717a3.045 3.045 0 00-1.335.668c-.39.326-.684.75-.912 1.19-.456.897-.7 1.892-.928 2.854-.228.961-.456 1.94-.814 2.853-.31.766-.732 1.467-1.351 1.972-.196-.473-.407-.93-.635-1.37a90.68 90.68 0 00-1.14-2.168c-.798-1.434-1.66-2.82-2.703-4.075.945 1.32 1.71 2.771 2.394 4.239.342.733.667 1.483.977 2.233.325.75.586 1.5.781 2.266.39 1.533.44 3.13.195 4.695-.032.212-.065.44-.113.652a15.9 15.9 0 00-1.515-4.01c-.977-1.793-2.328-3.407-3.972-4.614-.798-.603-1.596-1.239-2.313-1.94-.7-.7-1.318-1.516-1.71-2.445-.39-.93-.569-1.924-.602-2.935-.048-1.01.033-2.021.13-3.032a21.065 21.065 0 00-.195 3.032c.017 1.011.163 2.038.538 2.984.374.945.993 1.793 1.693 2.527.7.733 1.482 1.385 2.28 2.021 1.579 1.223 2.865 2.82 3.777 4.598.83 1.597 1.351 3.342 1.596 5.119-.228.896-.522 1.777-.815 2.673-.456 1.353-.944 2.74-1.335 4.157-.146.05-.276.082-.423.13-.537.164-1.091.278-1.645.278-1.123.016-2.263-.228-3.321-.636-1.058-.407-2.068-1.01-2.882-1.826-.814-.799-1.45-1.826-1.66-2.967.178 1.158.764 2.217 1.562 3.065.798.848 1.808 1.516 2.882 1.973a9.537 9.537 0 003.436.799c.602.016 1.205-.082 1.774-.229.05-.016.082-.016.13-.032l-.309 1.19c-.097.407-.195.831-.26 1.255a19.235 19.235 0 00-.277 2.56c-.081 1.728.081 3.456.423 5.135.31 1.533.798 3.016 1.384 4.45-.83.523-1.66 1.012-2.54 1.37a5.944 5.944 0 01-1.595.44c-.538.066-1.124 0-1.596-.326.212.18.472.294.75.375.276.066.569.098.846.082.57-.016 1.14-.147 1.677-.326.928-.294 1.807-.718 2.654-1.158.342.783.716 1.55 1.14 2.283.211.375.423.75.65 1.108.115.18.229.359.343.555l.081.13.049.065.016.033s.033.032-.016-.017l.016.017.18.277c.944 1.467 2.018 2.82 3.142 4.076 1.107 1.255 2.247 2.445 3.289 3.619.651.733 1.27 1.467 1.84 2.217V58.3c-.473-.457-.945-.897-1.417-1.337.163-1.24.716-2.494 1.368-3.717.016-.033.032-.065.049-.114V50.18c-.408.782-.88 1.549-1.336 2.364-.455.815-.911 1.663-1.253 2.592zM30.46 89.356l-.374-.115-.195-.065-.212-.065c-.309-.082-.618-.18-.911-.26a18.51 18.51 0 00-.847-.783c-.57-.49-1.156-.93-1.677-1.451a5.565 5.565 0 01-.7-.832 4.506 4.506 0 01-.472-.978c-.228-.7-.261-1.45-.212-2.2-.098.733-.114 1.5.081 2.233.098.375.245.717.424 1.06.195.325.423.635.667.912.505.57 1.075 1.06 1.612 1.565l.196.196c-.912-.26-1.824-.538-2.752-.766-1.042-.261-2.1-.457-3.191-.555a12.825 12.825 0 00-3.257.098c-.26.05-.537.098-.798.163-.26.066-.537.147-.781.245-.521.18-1.01.424-1.482.685-.798.456-1.514.994-2.214 1.548h.488c.619-.44 1.254-.847 1.921-1.206.456-.245.945-.44 1.433-.603.245-.082.489-.147.75-.196.26-.049.504-.098.765-.13 1.025-.13 2.067-.098 3.11.032 1.025.13 2.051.375 3.06.669 1.01.293 2.003.635 3.013.978.374.13.749.244 1.123.375.016.016.033.049.049.065h.081l.017-.016c.016 0 .032.016.032.016h3.24c-.407-.13-.83-.26-1.237-.391l-.75-.228z" fill="#fff"/><path d="M8.399 108.022c-1.417 0-2.459-.114-3.143-.359-.683-.228-1.302-.652-1.84-1.222a4.481 4.481 0 01-1.058-1.761c-.211-.652-.31-1.581-.31-2.772v-8.982h3.176v8.868c0 .881.032 1.5.114 1.859.081.359.211.652.407.864.293.359.667.603 1.107.766.44.147 1.042.228 1.807.228h3.729v2.511h-3.99zM16.833 92.926v9.031c0 1.419.26 2.397.765 2.951.505.555 1.384.832 2.638.832 1.237 0 2.116-.277 2.621-.832.505-.554.765-1.532.765-2.951v-9.031h3.175v9.113c0 1.076-.065 1.924-.211 2.559-.147.636-.358 1.142-.668 1.517a5.124 5.124 0 01-2.28 1.565c-.911.342-2.05.505-3.402.505-1.352 0-2.491-.163-3.403-.505-.912-.343-1.677-.864-2.28-1.565-.293-.359-.52-.848-.65-1.468-.131-.619-.213-1.483-.213-2.592v-9.113h3.143v-.016zM29.858 92.926h4.657l3.843 11.591L42.2 92.926h4.64v15.096h-3.11l.261-11.754-3.859 11.754h-3.37l-3.99-11.868.327 11.884h-3.224V92.926h-.017zM53.288 108.022h-3.305V92.926h3.305v15.096z" fill="#000"/><path d="M55.454 100.327c0-2.592.618-4.532 1.856-5.787 1.237-1.272 3.126-1.908 5.666-1.908 2.556 0 4.445.636 5.666 1.924 1.221 1.288 1.84 3.26 1.84 5.918 0 2.674-.619 4.646-1.84 5.934-1.221 1.288-3.11 1.924-5.666 1.924-2.589 0-4.477-.652-5.699-1.94-1.205-1.288-1.823-3.31-1.823-6.065zm7.522-5.102c-1.351 0-2.377.423-3.045 1.271-.667.848-1.01 2.136-1.01 3.848 0 1.858.326 3.228.978 4.092.651.864 1.677 1.304 3.077 1.304 1.384 0 2.41-.424 3.061-1.288.668-.864.993-2.185.993-3.962 0-1.793-.325-3.114-.993-3.978-.651-.864-1.677-1.287-3.061-1.287zM72.664 92.926h4.005l6.171 10.841-.147-10.841h3.24v15.096h-3.68l-6.48-11.412.147 11.412h-3.256V92.926z" fill="#40758B"/></svg>