<svg viewBox="0 0 60 60" fill="none" xmlns="http://www.w3.org/2000/svg">
  <path d="M55.293 32.707a1 1 0 001.414 0l3-3a1 1 0 000-1.414L54 22.586V9h1a1 1 0 001-1V4a1 1 0 00-1-1H44a1 1 0 00-1 1v4a1 1 0 001 1h1v4.586l-9.293-9.293a1 1 0 00-1.414 0l-5.941 5.941A14.497 14.497 0 000 14.5v9a14.513 14.513 0 0012 14.269v8.817l-.293-.293a.998.998 0 00-1.414 0l-2 2A1 1 0 008 49v1H6v-1a1 1 0 00-.293-.707l-2-2a1 1 0 00-1.414 0l-2 2A1 1 0 000 49v10a1 1 0 001 1h4a1 1 0 001-1v-3h2v3a1 1 0 001 1h48a1 1 0 001-1V49a1 1 0 00-.293-.707l-2-2a1.001 1.001 0 00-1.414 0l-.293.293V31.414l1.293 1.293zM4 58H2v-8.586l1-1 1 1V58zM45 5h9v2h-9V5zm2 4h5v11.586l-5-5V9zM35 6.414L57.586 29 56 30.586 35.707 10.293a1 1 0 00-1.414 0L14 30.586 12.414 29 35 6.414zM2 23.5v-9a12.496 12.496 0 0124.713-2.627l-16.42 16.42a.998.998 0 000 1.414l3 3a.999.999 0 001.414 0L16 31.414V35.9c-.498.063-.998.096-1.5.1A12.514 12.514 0 012 23.5zM6 54v-2h2v2H6zm4-4.586l1-1 1 1V58h-2v-8.586zm4-11.44c.167.006.331.026.5.026a14.71 14.71 0 001.5-.083V58h-2V37.974zM22 58V34h8v24h-8zm24 0v-8.586l1-1 1 1V58h-2zm4-6h2v2h-2v-2zm0 6v-2h2v2h-2zm5-9.586l1 1V58h-2v-8.586l1-1zM52 50h-2v-1a1 1 0 00-.293-.707l-2-2a1.001 1.001 0 00-1.414 0l-2 2A1 1 0 0044 49v9H32V33a1 1 0 00-1-1H21a1 1 0 00-1 1v25h-2V29.414l17-17 17 17V50z" fill="#fff"/>
  <path d="M25 48a1 1 0 100-2 1 1 0 000 2zM34 33v10a1 1 0 001 1h14a1 1 0 001-1V33a1 1 0 00-1-1H35a1 1 0 00-1 1zm2 6h5v3h-5v-3zm7 3v-3h5v3h-5zm5-5h-5v-3h5v3zm-7-3v3h-5v-3h5z" fill="#fff"/>
</svg>
