<svg viewBox="0 0 60 61" fill="none" xmlns="http://www.w3.org/2000/svg">
  <path d="M35.545 21.323H15.147v2.485h20.398v-2.485zM35.545 30.594H15.147v2.485h20.398v-2.485zM35.545 39.863H15.147v2.486h20.398v-2.486zM35.545 49.133H15.147v2.485h20.398v-2.485zM11.438 21.323H7.73v2.485h3.71v-2.485zM11.438 30.594H7.73v2.485h3.71v-2.485zM11.438 39.863H7.73v2.486h3.71v-2.486zM11.438 49.133H7.73v2.485h3.71v-2.485z" fill="#fff"/>
  <path d="M30.022 3.728h-3.436V0h-9.898v3.728h-3.435l-.696 2.783H0v53.452h43.274V6.486H30.718l-.696-2.758zM15.19 6.213h3.983V2.485h4.933v3.728h3.976l1.243 4.933H13.96l1.23-4.933zm25.598 2.784v48.48H2.485V8.972h9.45l-1.162 4.635H32.52l-1.161-4.635 9.43.025zM50.059 0v50.668l4.97 9.903L60 50.668V0h-9.94zm7.418 2.485V9.27h-4.933V2.485h4.933zm-2.485 52.526l-2.485-4.934V11.755h4.933v38.329l-2.448 4.927z" fill="#fff"/>
</svg>
