<svg width="101" height="23" fill="none" xmlns="http://www.w3.org/2000/svg"><path d="M14.062 1.161L.969 2.867v.1L2.86 14.27l2.688 8.433 13.812-3.932 1.444-12.32-6.742-5.29zM13.71 2.47l5.442 4.276-4.836.87-2.952-3.072-8.218 1.197-.75-1.794L13.712 2.47zm-2.234 5.386l2.8 3.494-4.54.966-1.085-1.868-4.181.815-.758-2.035 7.764-1.372zm-2.513 6.296l1.03 2.026-4.197 1.045-.743-2.178 3.91-.893z" fill="#E7242D"/><path d="M39.969 13.688l2.936-4.245h-3.088l-2.48 3.823V5.63l-2.857.822v12.32h2.856V14.43l2.888 4.844 2.768-.79-3.023-4.796zm54.957-1.875a2.145 2.145 0 00-1.595.95v3.557a2.71 2.71 0 001.308.289c.965 0 1.683-.743 1.683-2.554 0-1.572-.581-2.234-1.396-2.234v-.007zm.36 7.045a5.883 5.883 0 01-1.947-.327v3.191l-2.856.798V9.443h2.505l.199 1.222a3.614 3.614 0 012.664-1.404c1.908 0 3.352 1.444 3.352 4.602 0 3.536-1.875 4.995-3.918 4.995zm-12.033.12c-3.191 0-5.433-1.73-5.433-5.402V5.63h3.255v7.923c0 1.69.758 2.68 2.21 2.68s2.242-.966 2.242-2.64V5.63h3.192v7.923c0 3.654-2.306 5.425-5.466 5.425zm-10.085-.207v-5.85c0-.66-.263-1.123-.95-1.123a2.313 2.313 0 00-1.595.798v6.126h-2.825V6.442l2.856-.797v4.971a3.909 3.909 0 012.761-1.349c1.725 0 2.633 1.07 2.633 2.897v6.623l-2.88-.016zm-7.189-6.32a3.595 3.595 0 00-2.098-.686c-1.157 0-1.986.798-1.986 2.337 0 1.541.925 2.394 2.098 2.394a3.635 3.635 0 002.05-.677l.384 2.313a5.342 5.342 0 01-2.953.798c-2.65 0-4.467-1.747-4.467-4.787 0-3.296 2.066-4.891 4.579-4.891a5.502 5.502 0 012.68.647l-.287 2.553zm-7.62 6.264a5.416 5.416 0 01-1.643.192c-1.987 0-3.367-.727-3.367-3.105v-3.988h-1.037l-.39-2.339h1.427v-3.04l2.84-.798v3.815h1.732l.39 2.337h-2.13v3.559a.99.99 0 001.134 1.1c.218 0 .435-.026.646-.079l.399 2.346zm-12.526-5.458h2.937c-.097-1.412-.583-2.13-1.46-2.13-.879 0-1.381.695-1.477 2.122v.008zm5.641 4.66a6.672 6.672 0 01-3.686 1.044c-2.784 0-4.787-1.499-4.787-4.786 0-3.048 1.85-4.89 4.372-4.89 2.857 0 4.11 2.13 4.11 4.834.012.247.012.495 0 .742h-5.586a2.034 2.034 0 002.29 2.036 5.953 5.953 0 002.992-.958l.295 1.978zM32.022 9.1a7.107 7.107 0 00-3.407-1.068c-.981 0-1.46.414-1.46 1.028 0 .615.36.99 1.987 1.596 2.857 1.045 3.989 2.035 3.989 4.133 0 2.857-2.082 4.109-4.675 4.109a10.643 10.643 0 01-4.42-.925l.334-2.841a9.22 9.22 0 004.142 1.221c.924 0 1.595-.399 1.595-1.181s-.375-1.085-2.21-1.787c-2.649-.998-3.806-1.85-3.806-4.021 0-2.529 1.971-3.886 4.469-3.886a8.238 8.238 0 013.773.798l-.31 2.824z" fill="#313040"/></svg>