<svg viewBox="0 0 1367 891" fill="none" xmlns="http://www.w3.org/2000/svg">
  <g clip-path="url(#clip0)">
    <path d="M-12.5 396.5C121 383.333 434.4 422.6 620 685c185.6 262.4 596-24 778-200" stroke="#718096" stroke-width="3"/>
    <g opacity=".99">
      <g opacity=".1" fill="#30303B">
        <path d="M53.264 749.849H66.85v-13.585H53.264v13.585zM51 734h18.113v18.113H51V734zM180.057 749.849h13.585v-13.585h-13.585v13.585zM177.793 734h18.113v18.113h-18.113V734zM53.264 813.245H66.85V799.66H53.264v13.585zM51 797.396h18.113v18.113H51v-18.113zM180.057 813.245h13.585V799.66h-13.585v13.585zm-2.264-15.849h18.113v18.113h-18.113v-18.113zM116.661 749.849h13.585v-13.585h-13.585v13.585zM114.396 734h18.114v18.113h-18.114V734zM243.454 749.849h13.585v-13.585h-13.585v13.585zM241.189 734h18.114v18.113h-18.114V734zM116.661 813.245h13.585V799.66h-13.585v13.585zm-2.265-15.849h18.114v18.113h-18.114v-18.113zM243.454 813.245h13.585V799.66h-13.585v13.585zm-2.265-15.849h18.114v18.113h-18.114v-18.113zM53.264 781.547H66.85v-13.585H53.264v13.585zM51 765.698h18.113v18.113H51v-18.113zM180.057 781.547h13.585v-13.585h-13.585v13.585zm-2.264-15.849h18.113v18.113h-18.113v-18.113zM53.264 844.943H66.85v-13.584H53.264v13.584zM51 829.094h18.113v18.114H51v-18.114zM180.057 844.943h13.585v-13.584h-13.585v13.584zm-2.264-15.849h18.113v18.114h-18.113v-18.114zM116.661 781.547h13.585v-13.585h-13.585v13.585zm-2.265-15.849h18.114v18.113h-18.114v-18.113zM243.454 781.547h13.585v-13.585h-13.585v13.585zm-2.265-15.849h18.114v18.113h-18.114v-18.113zM116.661 844.943h13.585v-13.584h-13.585v13.584zm-2.265-15.849h18.114v18.114h-18.114v-18.114zM243.454 844.943h13.585v-13.584h-13.585v13.584zm-2.265-15.849h18.114v18.114h-18.114v-18.114zM84.961 749.849h13.585v-13.585H84.961v13.585zM82.697 734h18.113v18.113H82.697V734zM211.754 749.849h13.585v-13.585h-13.585v13.585zM209.49 734h18.113v18.113H209.49V734zM84.961 813.245h13.585V799.66H84.961v13.585zm-2.264-15.849h18.113v18.113H82.697v-18.113zM211.754 813.245h13.585V799.66h-13.585v13.585zm-2.264-15.849h18.113v18.113H209.49v-18.113zM148.358 749.849h13.585v-13.585h-13.585v13.585zM146.094 734h18.113v18.113h-18.113V734zM275.151 749.849h13.585v-13.585h-13.585v13.585zM272.887 734H291v18.113h-18.113V734zM148.358 813.245h13.585V799.66h-13.585v13.585zm-2.264-15.849h18.113v18.113h-18.113v-18.113zM275.151 813.245h13.585V799.66h-13.585v13.585zm-2.264-15.849H291v18.113h-18.113v-18.113zM84.961 781.547h13.585v-13.585H84.961v13.585zm-2.264-15.849h18.113v18.113H82.697v-18.113zM211.754 781.547h13.585v-13.585h-13.585v13.585zm-2.264-15.849h18.113v18.113H209.49v-18.113zM84.961 844.943h13.585v-13.584H84.961v13.584zm-2.264-15.849h18.113v18.114H82.697v-18.114zM211.754 844.943h13.585v-13.584h-13.585v13.584zm-2.264-15.849h18.113v18.114H209.49v-18.114zM148.358 781.547h13.585v-13.585h-13.585v13.585zm-2.264-15.849h18.113v18.113h-18.113v-18.113zM275.151 781.547h13.585v-13.585h-13.585v13.585zm-2.264-15.849H291v18.113h-18.113v-18.113zM148.358 844.943h13.585v-13.584h-13.585v13.584zm-2.264-15.849h18.113v18.114h-18.113v-18.114zM275.151 844.943h13.585v-13.584h-13.585v13.584zm-2.264-15.849H291v18.114h-18.113v-18.114z"/>
      </g>
    </g>
    <g opacity=".99">
      <g opacity=".1" fill="#30303B">
        <path d="M1068.26 119.849h13.59v-13.585h-13.59v13.585zM1066 104h18.11v18.113H1066V104zM1195.06 119.849h13.58v-13.585h-13.58v13.585zM1192.79 104h18.12v18.113h-18.12V104zM1068.26 183.245h13.59V169.66h-13.59v13.585zm-2.26-15.849h18.11v18.113H1066v-18.113zM1195.06 183.245h13.58V169.66h-13.58v13.585zm-2.27-15.849h18.12v18.113h-18.12v-18.113zM1131.66 119.849h13.59v-13.585h-13.59v13.585zM1129.4 104h18.11v18.113h-18.11V104zM1258.45 119.849h13.59v-13.585h-13.59v13.585zM1256.19 104h18.11v18.113h-18.11V104zM1131.66 183.245h13.59V169.66h-13.59v13.585zm-2.26-15.849h18.11v18.113h-18.11v-18.113zM1258.45 183.245h13.59V169.66h-13.59v13.585zm-2.26-15.849h18.11v18.113h-18.11v-18.113zM1068.26 151.547h13.59v-13.585h-13.59v13.585zm-2.26-15.849h18.11v18.113H1066v-18.113zM1195.06 151.547h13.58v-13.585h-13.58v13.585zm-2.27-15.849h18.12v18.113h-18.12v-18.113zM1068.26 214.943h13.59v-13.584h-13.59v13.584zm-2.26-15.849h18.11v18.114H1066v-18.114zM1195.06 214.943h13.58v-13.584h-13.58v13.584zm-2.27-15.849h18.12v18.114h-18.12v-18.114zM1131.66 151.547h13.59v-13.585h-13.59v13.585zm-2.26-15.849h18.11v18.113h-18.11v-18.113zM1258.45 151.547h13.59v-13.585h-13.59v13.585zm-2.26-15.849h18.11v18.113h-18.11v-18.113zM1131.66 214.943h13.59v-13.584h-13.59v13.584zm-2.26-15.849h18.11v18.114h-18.11v-18.114zM1258.45 214.943h13.59v-13.584h-13.59v13.584zm-2.26-15.849h18.11v18.114h-18.11v-18.114zM1099.96 119.849h13.59v-13.585h-13.59v13.585zM1097.7 104h18.11v18.113h-18.11V104zM1226.75 119.849h13.59v-13.585h-13.59v13.585zM1224.49 104h18.11v18.113h-18.11V104zM1099.96 183.245h13.59V169.66h-13.59v13.585zm-2.26-15.849h18.11v18.113h-18.11v-18.113zM1226.75 183.245h13.59V169.66h-13.59v13.585zm-2.26-15.849h18.11v18.113h-18.11v-18.113zM1163.36 119.849h13.58v-13.585h-13.58v13.585zM1161.09 104h18.12v18.113h-18.12V104zM1290.15 119.849h13.59v-13.585h-13.59v13.585zM1287.89 104H1306v18.113h-18.11V104zM1163.36 183.245h13.58V169.66h-13.58v13.585zm-2.27-15.849h18.12v18.113h-18.12v-18.113zM1290.15 183.245h13.59V169.66h-13.59v13.585zm-2.26-15.849H1306v18.113h-18.11v-18.113zM1099.96 151.547h13.59v-13.585h-13.59v13.585zm-2.26-15.849h18.11v18.113h-18.11v-18.113zM1226.75 151.547h13.59v-13.585h-13.59v13.585zm-2.26-15.849h18.11v18.113h-18.11v-18.113zM1099.96 214.943h13.59v-13.584h-13.59v13.584zm-2.26-15.849h18.11v18.114h-18.11v-18.114zM1226.75 214.943h13.59v-13.584h-13.59v13.584zm-2.26-15.849h18.11v18.114h-18.11v-18.114zM1163.36 151.547h13.58v-13.585h-13.58v13.585zm-2.27-15.849h18.12v18.113h-18.12v-18.113zM1290.15 151.547h13.59v-13.585h-13.59v13.585zm-2.26-15.849H1306v18.113h-18.11v-18.113zM1163.36 214.943h13.58v-13.584h-13.58v13.584zm-2.27-15.849h18.12v18.114h-18.12v-18.114zM1290.15 214.943h13.59v-13.584h-13.59v13.584zm-2.26-15.849H1306v18.114h-18.11v-18.114z"/>
      </g>
    </g>
  </g>
  <defs>
    <clipPath id="clip0">
      <path fill="#fff" d="M0 0h1367v891H0z"/>
    </clipPath>
  </defs>
</svg>
